<svg width="300" height="240" viewBox="0 0 500 700" xmlns="http://www.w3.org/2000/svg">
  <g transform="translate(0 50)">
    <path d="M250 150 C 200 100, 150 50, 100 100 C 50 150, 50 250, 100 300 C 150 350, 200 300, 250 250 C 300 200, 300 150, 250 150 Z" fill="#29ABE2"/>
    <path d="M250 170 C 220 130, 180 90, 140 120 C 100 150, 100 220, 140 260 C 180 300, 220 270, 250 230 C 280 190, 280 170, 250 170 Z" fill="#F26490"/>
    <circle cx="250" cy="100" r="15" fill="#29ABE2"/>
  </g>
  <text x="50%" y="50%" dominant-baseline="middle" text-anchor="middle" font-size="50" font-weight="bold" fill="#58595B" font-family="sans-serif">PIXELCANVAS</text>
  
</svg>