<svg version="1.1" id="Layer_1" xmlns="http://www.w3.org/2000/svg" xmlns:xlink="http://www.w3.org/1999/xlink" x="0px" y="0px"
	 width="100%" viewBox="0 0 512 512" enable-background="new 0 0 512 512" xml:space="preserve">
<path fill="#000000" opacity="1.000000" stroke="none" 
	d="
M269.000000,513.000000 
	C179.355087,513.000000 90.210175,513.000000 1.032630,513.000000 
	C1.032630,342.396729 1.032630,171.793442 1.032630,1.095084 
	C171.561600,1.095084 342.123260,1.095084 512.842468,1.095084 
	C512.842468,171.666550 512.842468,342.333252 512.842468,513.000000 
	C431.793427,513.000000 350.646698,513.000000 269.000000,513.000000 
M295.612061,186.199020 
	C288.085541,185.948135 280.386292,184.570953 273.070404,185.693192 
	C259.965271,187.703430 250.095474,195.580063 243.622253,207.042023 
	C238.579391,215.971329 236.364487,225.709564 238.984116,236.872269 
	C239.594452,243.812439 241.998734,249.972031 246.991333,255.746552 
	C250.921310,261.101288 255.527588,265.636871 262.240021,268.694000 
	C279.763977,277.376221 303.471527,273.942444 316.327728,258.105133 
	C327.026398,244.925598 330.244232,230.204422 324.017731,213.190536 
	C320.383331,207.779526 316.748962,202.368500 312.829529,196.326492 
	C307.234070,193.178467 301.638641,190.030441 295.612061,186.199020 
M417.701660,163.808136 
	C422.517426,161.188110 427.056152,157.586578 432.201508,156.134079 
	C446.993927,151.958267 462.058594,148.757553 476.964172,144.968536 
	C488.445862,142.049881 491.113800,132.678848 488.095276,122.679543 
	C485.644501,114.561073 478.515503,112.697159 470.640320,111.209984 
	C458.758636,108.524742 446.876923,105.839508 434.237000,103.019096 
	C433.460297,102.824631 432.649017,102.716843 431.912140,102.422600 
	C422.180847,98.536629 414.448151,92.066673 407.990021,83.156151 
	C404.937744,74.104485 401.885437,65.052811 398.974274,55.185165 
	C396.983948,46.511208 394.827362,37.870964 393.059235,29.151953 
	C391.789703,22.891653 385.276154,16.398064 377.524139,16.870632 
	C368.332001,17.430992 362.868408,20.975973 361.002167,29.109802 
	C357.992889,42.225323 355.299866,55.423016 351.908386,68.438812 
	C347.603333,84.960663 337.745422,97.209000 321.119812,102.224174 
	C306.716003,106.569122 291.879547,109.484406 277.223511,112.986275 
	C270.650452,114.556816 265.451874,119.787567 265.002441,125.411095 
	C264.097656,136.731216 267.219299,141.482819 275.173370,144.435089 
	C281.460480,146.768692 288.368439,147.429565 295.785980,148.994186 
	C296.862122,149.329361 297.929230,149.697388 299.015778,149.994507 
	C308.049194,152.464859 317.086212,154.922104 326.652527,157.912430 
	C336.893921,162.442520 343.545166,170.579849 349.003815,180.804855 
	C349.673065,182.775757 350.468933,184.713821 350.989838,186.723175 
	C353.354126,195.843628 355.640930,204.984177 357.995056,214.944336 
	C358.994354,219.525909 359.970856,224.112625 360.998260,228.687866 
	C362.543671,235.569809 367.898132,240.548981 373.807220,241.029343 
	C386.075378,242.026642 390.303741,237.314285 392.598969,230.523300 
	C395.127045,223.043304 396.362427,215.113342 397.981964,207.342102 
	C401.274689,191.542206 404.278931,175.643112 417.024597,164.024338 
	C417.024597,164.024338 417.060791,164.095505 417.701660,163.808136 
M25.026482,380.929047 
	C25.073259,393.286560 25.120035,405.644043 25.025618,418.929230 
	C25.017456,422.722321 25.006403,426.515442 25.001740,430.308533 
	C24.992233,438.041016 24.343319,445.856689 27.996023,453.875061 
	C30.959600,459.600830 33.923180,465.326599 37.173527,471.676117 
	C42.116497,476.395477 47.059467,481.114807 52.643955,486.143250 
	C60.363846,491.216278 68.338150,495.640656 78.372002,496.779816 
	C89.581604,496.797455 100.791206,496.815094 112.928391,496.975342 
	C120.619453,496.927765 128.310516,496.880219 136.929047,496.975464 
	C147.620117,496.927917 158.311203,496.880402 169.929688,496.975250 
	C181.953873,496.927856 193.978058,496.880463 206.929657,496.975800 
	C224.286209,496.928711 241.642746,496.881622 259.927490,496.976654 
	C268.619934,496.928436 277.312408,496.880249 286.931915,496.974762 
	C303.259247,496.984070 319.586609,496.994171 335.913940,497.000824 
	C336.913300,497.001251 337.943298,497.128540 338.907440,496.936951 
	C355.929993,493.554291 370.391602,485.885986 380.854370,471.635529 
	C387.261871,462.908386 392.094818,453.199615 392.781219,442.464020 
	C393.640076,429.031158 392.888458,415.495270 392.979462,401.076263 
	C392.931091,393.384003 392.882721,385.691772 392.980835,377.072357 
	C392.931580,361.715607 392.882324,346.358887 392.978790,330.074554 
	C392.930328,315.384064 392.881866,300.693573 392.979584,285.075439 
	C392.979584,277.255981 392.979584,269.436523 392.979584,261.276978 
	C382.274750,265.162567 371.727936,265.052521 361.166931,261.378540 
	C361.166931,277.725891 361.166931,293.865021 361.025635,310.931519 
	C361.025635,320.422638 361.025635,329.913757 361.025635,339.186340 
	C355.547546,338.496063 350.274689,337.831665 344.160980,336.993103 
	C342.921661,336.662018 341.683289,336.049103 340.442871,336.045013 
	C331.629242,336.015839 322.815186,336.111237 313.144318,336.022308 
	C302.749756,338.308868 292.355164,340.595459 281.180511,342.983917 
	C273.698120,346.213623 265.946198,348.944183 258.802612,352.801422 
	C250.172394,357.461334 249.966003,357.854858 242.938416,351.457367 
	C242.630203,351.358765 242.321991,351.260162 241.535782,351.009674 
	C241.373108,350.971069 241.210449,350.932495 240.774078,350.266479 
	C233.529114,345.471375 226.284149,340.676239 218.710617,335.255737 
	C217.128662,334.501434 215.549774,333.740601 213.964188,332.994049 
	C209.681000,330.977356 205.394943,328.966766 200.797195,326.290985 
	C193.900879,323.511963 187.004547,320.732971 179.711761,317.278320 
	C177.380981,316.627625 175.070297,315.890594 172.715729,315.341980 
	C164.857956,313.511292 156.984451,311.748108 148.667542,309.247070 
	C146.685135,309.136444 144.699432,309.067139 142.720886,308.908356 
	C131.480316,308.006409 120.241463,307.083160 108.082428,306.023987 
	C91.138474,307.688965 74.194527,309.353912 56.833633,311.059845 
	C56.833633,302.920654 56.833633,294.461609 56.977825,285.074707 
	C57.318439,247.817841 57.642273,210.560791 58.014397,173.304245 
	C58.085461,166.189209 61.685455,160.494339 66.157211,155.441269 
	C73.317719,147.349945 83.103111,145.326111 93.269096,145.067398 
	C104.760185,144.774933 116.264450,144.999893 127.762985,144.999893 
	C166.587036,144.999878 205.411087,144.999893 244.718369,144.999893 
	C240.747498,134.275497 240.878006,123.724602 244.654663,112.997711 
	C242.630478,112.997711 240.802719,112.997681 238.974960,112.997711 
	C187.314880,112.998505 135.654785,112.982063 83.994774,113.043137 
	C80.907623,113.046783 77.764702,113.405014 74.743248,114.047424 
	C46.353397,120.083618 24.236992,146.630524 24.869379,176.034958 
	C25.474792,204.185028 24.980379,232.358322 25.006792,260.521393 
	C25.022263,277.015503 25.110939,293.509583 25.028355,310.931396 
	C25.074818,333.954712 25.121279,356.978027 25.026482,380.929047 
z"/>
<path fill="#6E00FF" opacity="1.000000" stroke="none" 
	d="
M25.166683,310.003662 
	C25.110939,293.509583 25.022263,277.015503 25.006792,260.521393 
	C24.980379,232.358322 25.474792,204.185028 24.869379,176.034958 
	C24.236992,146.630524 46.353397,120.083618 74.743248,114.047424 
	C77.764702,113.405014 80.907623,113.046783 83.994774,113.043137 
	C135.654785,112.982063 187.314880,112.998505 238.974960,112.997711 
	C240.802719,112.997681 242.630478,112.997711 244.654663,112.997711 
	C240.878006,123.724602 240.747498,134.275497 244.718369,144.999893 
	C205.411087,144.999893 166.587036,144.999878 127.762985,144.999893 
	C116.264450,144.999893 104.760185,144.774933 93.269096,145.067398 
	C83.103111,145.326111 73.317719,147.349945 66.157211,155.441269 
	C61.685455,160.494339 58.085461,166.189209 58.014397,173.304245 
	C57.642273,210.560791 57.318439,247.817841 56.556015,285.562988 
	C55.232487,286.422821 54.152336,286.590179 53.456905,287.197815 
	C47.116337,292.738190 40.951073,298.484497 34.499680,303.890259 
	C31.668785,306.262360 28.294327,307.985718 25.166683,310.003662 
z"/>
<path fill="#B41BF0" opacity="1.000000" stroke="none" 
	d="
M392.833038,331.002136 
	C392.882324,346.358887 392.931580,361.715607 392.581787,377.617737 
	C386.697571,382.698975 381.102356,387.109283 375.750946,391.797852 
	C365.766510,400.545715 355.959900,409.496124 346.013306,418.287567 
	C332.838104,429.932587 319.599640,441.506012 306.388245,453.110046 
	C295.919067,462.305542 285.331787,471.371216 275.027771,480.748169 
	C269.436066,485.836792 264.326385,491.455139 258.999298,496.834534 
	C241.642746,496.881622 224.286209,496.928711 206.546341,496.581085 
	C207.059509,495.007690 207.793259,493.646820 208.877380,492.678131 
	C221.258041,481.615753 233.668991,470.586914 246.118286,459.601746 
	C259.186707,448.070251 272.341370,436.636353 285.392273,425.085083 
	C298.198181,413.750580 310.891846,402.289337 323.687622,390.943298 
	C340.455292,376.075348 357.226196,361.210266 374.097900,346.460815 
	C380.191010,341.134125 386.579376,336.145203 392.833038,331.002136 
z"/>
<path fill="#AF19F1" opacity="1.000000" stroke="none" 
	d="
M392.905914,330.538330 
	C386.579376,336.145203 380.191010,341.134125 374.097900,346.460815 
	C357.226196,361.210266 340.455292,376.075348 323.687622,390.943298 
	C310.891846,402.289337 298.198181,413.750580 285.392273,425.085083 
	C272.341370,436.636353 259.186707,448.070251 246.118286,459.601746 
	C233.668991,470.586914 221.258041,481.615753 208.877380,492.678131 
	C207.793259,493.646820 207.059509,495.007690 206.082642,496.509705 
	C193.978058,496.880463 181.953873,496.927856 169.540115,496.568024 
	C169.793747,495.013763 170.199295,493.608765 171.118805,492.761688 
	C176.980698,487.361633 182.927216,482.052124 188.899460,476.773468 
	C202.455841,464.791412 216.055344,452.858154 229.613785,440.878448 
	C239.069687,432.523560 248.469559,424.105286 257.925049,415.749939 
	C271.482910,403.769592 285.055573,391.805847 298.646942,379.863495 
	C308.746155,370.989594 319.008698,362.296967 328.958099,353.258972 
	C334.557800,348.172241 339.670013,342.548859 345.001862,337.167236 
	C350.274689,337.831665 355.547546,338.496063 361.025635,339.186340 
	C361.025635,329.913757 361.025635,320.422638 361.453094,310.442444 
	C363.506073,309.197357 365.386108,308.743591 366.709595,307.628967 
	C370.756683,304.220612 374.465149,300.407623 378.539154,297.034454 
	C383.172302,293.198395 388.057648,289.666931 392.833374,286.003082 
	C392.881866,300.693573 392.930328,315.384064 392.905914,330.538330 
z"/>
<path fill="#9B11F5" opacity="1.000000" stroke="none" 
	d="
M219.039185,335.881104 
	C226.284149,340.676239 233.529114,345.471375 240.737167,350.873535 
	C233.471176,358.089325 226.316147,364.781342 218.996964,371.288727 
	C205.592026,383.206970 192.076050,395.000244 178.633438,406.876251 
	C169.046829,415.345642 159.525925,423.889465 149.937332,432.356628 
	C136.616608,444.119507 123.242210,455.821594 109.924248,467.587585 
	C99.220100,477.044312 88.565636,486.557312 77.889130,496.045349 
	C68.338150,495.640656 60.363846,491.216278 52.407959,485.668518 
	C57.415810,480.382172 62.591583,475.493744 67.916840,470.774017 
	C81.343864,458.873749 94.853851,447.067108 108.300323,435.188690 
	C117.889671,426.717560 127.409126,418.167328 136.997131,409.694733 
	C150.441727,397.814178 163.913147,385.963959 177.388000,374.117767 
	C187.493637,365.233551 197.703384,356.465637 207.701828,347.462738 
	C211.708542,343.854980 215.273285,339.756348 219.039185,335.881104 
z"/>
<path fill="#A916F2" opacity="1.000000" stroke="none" 
	d="
M344.581421,337.080170 
	C339.670013,342.548859 334.557800,348.172241 328.958099,353.258972 
	C319.008698,362.296967 308.746155,370.989594 298.646942,379.863495 
	C285.055573,391.805847 271.482910,403.769592 257.925049,415.749939 
	C248.469559,424.105286 239.069687,432.523560 229.613785,440.878448 
	C216.055344,452.858154 202.455841,464.791412 188.899460,476.773468 
	C182.927216,482.052124 176.980698,487.361633 171.118805,492.761688 
	C170.199295,493.608765 169.793747,495.013763 169.076416,496.496826 
	C158.311203,496.880402 147.620117,496.927917 136.545715,496.580963 
	C140.773758,491.686218 145.229507,487.012146 150.026031,482.718750 
	C163.632980,470.539032 177.388992,458.526001 191.067719,446.426300 
	C203.381104,435.534363 215.658661,424.601929 227.972443,413.710449 
	C241.651657,401.611267 255.338913,389.521118 269.051361,377.459686 
	C278.898712,368.798065 288.905426,360.313873 298.622131,351.508942 
	C303.981689,346.652252 308.889679,341.297272 314.001282,336.166931 
	C322.815186,336.111237 331.629242,336.015839 340.442871,336.045013 
	C341.683289,336.049103 342.921661,336.662018 344.581421,337.080170 
z"/>
<path fill="#8D0CF8" opacity="1.000000" stroke="none" 
	d="
M149.116974,309.959045 
	C156.984451,311.748108 164.857956,313.511292 172.715729,315.341980 
	C175.070297,315.890594 177.380981,316.627625 179.617126,317.789062 
	C166.859451,329.519073 154.198868,340.741089 141.532608,351.956665 
	C132.342911,360.093872 123.159920,368.238739 113.948456,376.351257 
	C100.756874,387.969086 87.543381,399.562103 74.336723,411.162811 
	C63.871277,420.355682 53.336414,429.470978 42.962227,438.765625 
	C37.809006,443.382629 32.947666,448.325409 27.954254,453.120758 
	C24.343319,445.856689 24.992233,438.041016 25.001740,430.308533 
	C25.006403,426.515442 25.017456,422.722321 25.421812,418.383179 
	C37.273197,407.996948 48.794529,398.232452 60.163719,388.293915 
	C70.172386,379.544647 79.978058,370.563599 89.932594,361.751801 
	C103.367210,349.859375 116.842072,338.012238 130.332840,326.183472 
	C136.553619,320.729004 142.853149,315.364380 149.116974,309.959045 
z"/>
<path fill="#A113F4" opacity="1.000000" stroke="none" 
	d="
M78.130569,496.412598 
	C88.565636,486.557312 99.220100,477.044312 109.924248,467.587585 
	C123.242210,455.821594 136.616608,444.119507 149.937332,432.356628 
	C159.525925,423.889465 169.046829,415.345642 178.633438,406.876251 
	C192.076050,395.000244 205.592026,383.206970 218.996964,371.288727 
	C226.316147,364.781342 233.471176,358.089325 240.874023,351.187256 
	C241.210449,350.932495 241.373108,350.971069 241.939514,351.244873 
	C242.578400,351.678955 242.837845,351.838287 243.121567,351.958130 
	C249.966003,357.854858 250.172394,357.461334 258.802612,352.801422 
	C265.946198,348.944183 273.698120,346.213623 281.511047,343.276672 
	C276.219452,349.158539 270.813782,354.987946 264.931091,360.287903 
	C251.731613,372.179779 238.277145,383.788208 224.961227,395.551392 
	C215.251572,404.128876 205.621384,412.796326 195.912598,421.374786 
	C182.597870,433.139313 169.247482,444.863495 155.902466,456.593689 
	C145.675858,465.582794 135.346344,474.457397 125.238136,483.577515 
	C120.608192,487.754852 116.400169,492.399811 112.000809,496.832733 
	C100.791206,496.815094 89.581604,496.797455 78.130569,496.412598 
z"/>
<path fill="#8107FB" opacity="1.000000" stroke="none" 
	d="
M295.000702,148.833282 
	C288.368439,147.429565 281.460480,146.768692 275.173370,144.435089 
	C267.219299,141.482819 264.097656,136.731216 265.002441,125.411095 
	C265.451874,119.787567 270.650452,114.556816 277.223511,112.986275 
	C291.879547,109.484406 306.716003,106.569122 321.119812,102.224174 
	C337.745422,97.209000 347.603333,84.960663 351.908386,68.438812 
	C355.299866,55.423016 357.992889,42.225323 361.002167,29.109802 
	C362.868408,20.975973 368.332001,17.430992 377.524139,16.870632 
	C385.276154,16.398064 391.789703,22.891653 393.059235,29.151953 
	C394.827362,37.870964 396.983948,46.511208 398.569336,55.666702 
	C393.289734,60.085571 388.269806,63.857693 383.568390,67.992004 
	C370.734467,79.277817 358.086700,90.775139 345.268829,102.079422 
	C329.717346,115.794510 314.027039,129.352463 298.520020,143.117279 
	C296.917938,144.539368 296.153717,146.905304 295.000702,148.833282 
z"/>
<path fill="#C220EC" opacity="1.000000" stroke="none" 
	d="
M392.832031,402.003906 
	C392.888458,415.495270 393.640076,429.031158 392.781219,442.464020 
	C392.094818,453.199615 387.261871,462.908386 380.854370,471.635529 
	C370.391602,485.885986 355.929993,493.554291 338.907440,496.936951 
	C337.943298,497.128540 336.913300,497.001251 335.913940,497.000824 
	C319.586609,496.994171 303.259247,496.984070 286.548157,496.580505 
	C287.059296,495.008698 287.793732,493.652832 288.873566,492.680603 
	C302.307220,480.585388 315.752563,468.502563 329.272003,456.503387 
	C345.515961,442.086029 361.776947,427.686646 378.156281,413.423798 
	C382.823761,409.359406 387.928040,405.796661 392.832031,402.003906 
z"/>
<path fill="#960FF6" opacity="1.000000" stroke="none" 
	d="
M218.874908,335.568420 
	C215.273285,339.756348 211.708542,343.854980 207.701828,347.462738 
	C197.703384,356.465637 187.493637,365.233551 177.388000,374.117767 
	C163.913147,385.963959 150.441727,397.814178 136.997131,409.694733 
	C127.409126,418.167328 117.889671,426.717560 108.300323,435.188690 
	C94.853851,447.067108 81.343864,458.873749 67.916840,470.774017 
	C62.591583,475.493744 57.415810,480.382172 52.087204,485.513977 
	C47.059467,481.114807 42.116497,476.395477 37.341969,471.213562 
	C43.645870,465.416870 49.803478,460.107941 55.912281,454.743378 
	C69.396889,442.901611 82.871986,431.048920 96.321777,419.167603 
	C105.913528,410.694458 115.435387,402.142212 125.028572,393.670715 
	C138.355698,381.901825 151.705521,370.158539 165.073471,358.436035 
	C177.066086,347.919617 189.096359,337.446167 201.110031,326.953766 
	C205.394943,328.966766 209.681000,330.977356 213.964188,332.994049 
	C215.549774,333.740601 217.128662,334.501434 218.874908,335.568420 
z"/>
<path fill="#920EF7" opacity="1.000000" stroke="none" 
	d="
M200.953613,326.622375 
	C189.096359,337.446167 177.066086,347.919617 165.073471,358.436035 
	C151.705521,370.158539 138.355698,381.901825 125.028572,393.670715 
	C115.435387,402.142212 105.913528,410.694458 96.321777,419.167603 
	C82.871986,431.048920 69.396889,442.901611 55.912281,454.743378 
	C49.803478,460.107941 43.645870,465.416870 37.198586,470.901703 
	C33.923180,465.326599 30.959600,459.600830 27.975142,453.497925 
	C32.947666,448.325409 37.809006,443.382629 42.962227,438.765625 
	C53.336414,429.470978 63.871277,420.355682 74.336723,411.162811 
	C87.543381,399.562103 100.756874,387.969086 113.948456,376.351257 
	C123.159920,368.238739 132.342911,360.093872 141.532608,351.956665 
	C154.198868,340.741089 166.859451,329.519073 179.815338,318.126892 
	C187.004547,320.732971 193.900879,323.511963 200.953613,326.622375 
z"/>
<path fill="#960FF6" opacity="1.000000" stroke="none" 
	d="
M434.995239,103.154274 
	C446.876923,105.839508 458.758636,108.524742 470.695740,111.863319 
	C466.512848,116.670067 462.425842,120.992569 458.007629,124.944794 
	C445.388336,136.233124 432.585938,147.317093 419.999451,158.641388 
	C418.554138,159.941772 418.018311,162.252975 417.060791,164.095505 
	C417.060791,164.095505 417.024597,164.024338 416.686279,164.050323 
	C411.836304,167.280457 407.025146,170.139999 402.868652,173.752731 
	C389.883942,185.038879 377.138123,196.600098 364.321686,208.079269 
	C362.143951,210.029785 360.074890,212.101669 357.955627,214.117493 
	C355.640930,204.984177 353.354126,195.843628 350.989838,186.723175 
	C350.468933,184.713821 349.673065,182.775757 349.286591,180.346100 
	C361.993317,169.144150 374.451477,158.440170 386.830902,147.645905 
	C397.599274,138.256409 408.393250,128.890579 418.950928,119.267479 
	C424.546173,114.167542 429.662628,108.542351 434.995239,103.154274 
z"/>
<path fill="#8709FA" opacity="1.000000" stroke="none" 
	d="
M148.892242,309.603027 
	C142.853149,315.364380 136.553619,320.729004 130.332840,326.183472 
	C116.842072,338.012238 103.367210,349.859375 89.932594,361.751801 
	C79.978058,370.563599 70.172386,379.544647 60.163719,388.293915 
	C48.794529,398.232452 37.273197,407.996948 25.492409,417.919312 
	C25.120035,405.644043 25.073259,393.286560 25.431503,380.391113 
	C27.010447,379.246765 28.367655,378.848785 29.330458,378.002258 
	C41.417278,367.375519 53.432789,356.667786 65.495789,346.013885 
	C75.939545,336.790070 86.496117,327.692322 96.848724,318.367706 
	C101.107697,314.531677 104.963074,310.247498 109.002029,306.167145 
	C120.241463,307.083160 131.480316,308.006409 142.720886,308.908356 
	C144.699432,309.067139 146.685135,309.136444 148.892242,309.603027 
z"/>
<path fill="#A515F3" opacity="1.000000" stroke="none" 
	d="
M112.464600,496.904053 
	C116.400169,492.399811 120.608192,487.754852 125.238136,483.577515 
	C135.346344,474.457397 145.675858,465.582794 155.902466,456.593689 
	C169.247482,444.863495 182.597870,433.139313 195.912598,421.374786 
	C205.621384,412.796326 215.251572,404.128876 224.961227,395.551392 
	C238.277145,383.788208 251.731613,372.179779 264.931091,360.287903 
	C270.813782,354.987946 276.219452,349.158539 281.901123,343.225739 
	C292.355164,340.595459 302.749756,338.308868 313.572784,336.094604 
	C308.889679,341.297272 303.981689,346.652252 298.622131,351.508942 
	C288.905426,360.313873 278.898712,368.798065 269.051361,377.459686 
	C255.338913,389.521118 241.651657,401.611267 227.972443,413.710449 
	C215.658661,424.601929 203.381104,435.534363 191.067719,446.426300 
	C177.388992,458.526001 163.632980,470.539032 150.026031,482.718750 
	C145.229507,487.012146 140.773758,491.686218 136.081985,496.509552 
	C128.310516,496.880219 120.619453,496.927765 112.464600,496.904053 
z"/>
<path fill="#8D0CF8" opacity="1.000000" stroke="none" 
	d="
M434.616119,103.086685 
	C429.662628,108.542351 424.546173,114.167542 418.950928,119.267479 
	C408.393250,128.890579 397.599274,138.256409 386.830902,147.645905 
	C374.451477,158.440170 361.993317,169.144150 349.225922,179.962326 
	C343.545166,170.579849 336.893921,162.442520 326.739197,157.466705 
	C328.331146,155.496948 329.759338,153.886490 331.354767,152.463531 
	C339.147736,145.513000 346.963989,138.588226 354.812378,131.700394 
	C364.902313,122.845398 375.114258,114.127625 385.115570,105.174171 
	C392.884552,98.219147 400.411407,90.993645 408.045868,83.888351 
	C414.448151,92.066673 422.180847,98.536629 431.912140,102.422600 
	C432.649017,102.716843 433.460297,102.824631 434.616119,103.086685 
z"/>
<path fill="#8709FA" opacity="1.000000" stroke="none" 
	d="
M408.017944,83.522247 
	C400.411407,90.993645 392.884552,98.219147 385.115570,105.174171 
	C375.114258,114.127625 364.902313,122.845398 354.812378,131.700394 
	C346.963989,138.588226 339.147736,145.513000 331.354767,152.463531 
	C329.759338,153.886490 328.331146,155.496948 326.473999,157.202148 
	C317.086212,154.922104 308.049194,152.464859 299.015778,149.994507 
	C297.929230,149.697388 296.862122,149.329361 295.393341,148.913727 
	C296.153717,146.905304 296.917938,144.539368 298.520020,143.117279 
	C314.027039,129.352463 329.717346,115.794510 345.268829,102.079422 
	C358.086700,90.775139 370.734467,79.277817 383.568390,67.992004 
	C388.269806,63.857693 393.289734,60.085571 398.498779,56.074692 
	C401.885437,65.052811 404.937744,74.104485 408.017944,83.522247 
z"/>
<path fill="#8107FB" opacity="1.000000" stroke="none" 
	d="
M108.542229,306.095581 
	C104.963074,310.247498 101.107697,314.531677 96.848724,318.367706 
	C86.496117,327.692322 75.939545,336.790070 65.495789,346.013885 
	C53.432789,356.667786 41.417278,367.375519 29.330458,378.002258 
	C28.367655,378.848785 27.010447,379.246765 25.502134,379.927277 
	C25.121279,356.978027 25.074818,333.954712 25.097519,310.467529 
	C28.294327,307.985718 31.668785,306.262360 34.499680,303.890259 
	C40.951073,298.484497 47.116337,292.738190 53.456905,287.197815 
	C54.152336,286.590179 55.232487,286.422821 56.483917,286.026886 
	C56.833633,294.461609 56.833633,302.920654 56.833633,311.059845 
	C74.194527,309.353912 91.138474,307.688965 108.542229,306.095581 
z"/>
<path fill="#BB1DEE" opacity="1.000000" stroke="none" 
	d="
M392.905762,401.540100 
	C387.928040,405.796661 382.823761,409.359406 378.156281,413.423798 
	C361.776947,427.686646 345.515961,442.086029 329.272003,456.503387 
	C315.752563,468.502563 302.307220,480.585388 288.873566,492.680603 
	C287.793732,493.652832 287.059296,495.008698 286.084595,496.509155 
	C277.312408,496.880249 268.619934,496.928436 259.463379,496.905579 
	C264.326385,491.455139 269.436066,485.836792 275.027771,480.748169 
	C285.331787,471.371216 295.919067,462.305542 306.388245,453.110046 
	C319.599640,441.506012 332.838104,429.932587 346.013306,418.287567 
	C355.959900,409.496124 365.766510,400.545715 375.750946,391.797852 
	C381.102356,387.109283 386.697571,382.698975 392.508545,378.081299 
	C392.882721,385.691772 392.931091,393.384003 392.905762,401.540100 
z"/>
<path fill="#920EF7" opacity="1.000000" stroke="none" 
	d="
M261.889404,268.045959 
	C255.527588,265.636871 250.921310,261.101288 247.192383,255.169785 
	C252.910110,249.580063 258.399506,244.536682 263.948975,239.560318 
	C276.798706,228.037598 289.632904,216.496719 302.575348,205.078751 
	C305.893860,202.151123 309.591248,199.652939 313.114594,196.957474 
	C316.748962,202.368500 320.383331,207.779526 323.776123,213.741425 
	C310.560516,225.821518 297.644043,237.416351 284.590302,248.854462 
	C277.138947,255.383591 269.463776,261.657257 261.889404,268.045959 
z"/>
<path fill="#9B11F5" opacity="1.000000" stroke="none" 
	d="
M357.975342,214.530914 
	C360.074890,212.101669 362.143951,210.029785 364.321686,208.079269 
	C377.138123,196.600098 389.883942,185.038879 402.868652,173.752731 
	C407.025146,170.139999 411.836304,167.280457 416.721863,164.068451 
	C404.278931,175.643112 401.274689,191.542206 397.981964,207.342102 
	C396.362427,215.113342 395.127045,223.043304 392.598969,230.523300 
	C390.303741,237.314285 386.075378,242.026642 373.807220,241.029343 
	C367.898132,240.548981 362.543671,235.569809 360.998260,228.687866 
	C359.970856,224.112625 358.994354,219.525909 357.975342,214.530914 
z"/>
<path fill="#960FF6" opacity="1.000000" stroke="none" 
	d="
M262.064697,268.369965 
	C269.463776,261.657257 277.138947,255.383591 284.590302,248.854462 
	C297.644043,237.416351 310.560516,225.821518 323.828003,214.119232 
	C330.244232,230.204422 327.026398,244.925598 316.327728,258.105133 
	C303.471527,273.942444 279.763977,277.376221 262.064697,268.369965 
z"/>
<path fill="#8D0CF8" opacity="1.000000" stroke="none" 
	d="
M312.972046,196.641983 
	C309.591248,199.652939 305.893860,202.151123 302.575348,205.078751 
	C289.632904,216.496719 276.798706,228.037598 263.948975,239.560318 
	C258.399506,244.536682 252.910110,249.580063 247.143127,254.820633 
	C241.998734,249.972031 239.594452,243.812439 239.302322,236.428421 
	C241.388046,234.848236 243.330536,233.911957 244.894974,232.543472 
	C255.996964,222.832001 267.048462,213.062256 278.060120,203.248306 
	C284.110565,197.855972 290.052399,192.341705 296.043213,186.882416 
	C301.638641,190.030441 307.234070,193.178467 312.972046,196.641983 
z"/>
<path fill="#9B11F5" opacity="1.000000" stroke="none" 
	d="
M417.381226,163.951813 
	C418.018311,162.252975 418.554138,159.941772 419.999451,158.641388 
	C432.585938,147.317093 445.388336,136.233124 458.007629,124.944794 
	C462.425842,120.992569 466.512848,116.670067 470.903625,112.205185 
	C478.515503,112.697159 485.644501,114.561073 488.095276,122.679543 
	C491.113800,132.678848 488.445862,142.049881 476.964172,144.968536 
	C462.058594,148.757553 446.993927,151.958267 432.201508,156.134079 
	C427.056152,157.586578 422.517426,161.188110 417.381226,163.951813 
z"/>
<path fill="#8709FA" opacity="1.000000" stroke="none" 
	d="
M295.827637,186.540710 
	C290.052399,192.341705 284.110565,197.855972 278.060120,203.248306 
	C267.048462,213.062256 255.996964,222.832001 244.894974,232.543472 
	C243.330536,233.911957 241.388046,234.848236 239.253662,236.014725 
	C236.364487,225.709564 238.579391,215.971329 243.622253,207.042023 
	C250.095474,195.580063 259.965271,187.703430 273.070404,185.693192 
	C280.386292,184.570953 288.085541,185.948135 295.827637,186.540710 
z"/>
<path fill="#A515F3" opacity="1.000000" stroke="none" 
	d="
M392.906494,285.539246 
	C388.057648,289.666931 383.172302,293.198395 378.539154,297.034454 
	C374.465149,300.407623 370.756683,304.220612 366.709595,307.628967 
	C365.386108,308.743591 363.506073,309.197357 361.523743,309.978760 
	C361.166931,293.865021 361.166931,277.725891 361.166931,261.378540 
	C371.727936,265.052521 382.274750,265.162567 392.979584,261.276978 
	C392.979584,269.436523 392.979584,277.255981 392.906494,285.539246 
z"/>
<path fill="#9B11F5" opacity="1.000000" stroke="none" 
	d="
M243.029999,351.707764 
	C242.837845,351.838287 242.578400,351.678955 242.178497,351.320831 
	C242.321991,351.260162 242.630203,351.358765 243.029999,351.707764 
z"/>
</svg>